# xmcd
#
# Track frame offsets: 
#        150
#        16890
#        28804
#        36216
#        46122
#        56544
#        68192
#        79826
#        88878
#        95463
#        107502
#        117013
#        124200
#        139560
#        149962
#        162813
#        177359
#        191820
#        203610
#        216587
#
# Disc length: 3031 seconds
#
# Revision: 1
# Processed by: cddbd v1.5.2PL0 Copyright (c) Steve Scherf et al.
# Submitted via: ExactAudioCopy v0.99pb4
#
DISCID=220bd514
DTITLE=Sinatra, Frank - I'll be around
DYEAR=1900
DGENRE=Jazz
TTITLE0=I only have eyes for you
TTITLE1=The way you look tonightt
TTITLE2=I'll be around
TTITLE3=She's funny that way
TTITLE4=Speak low
TTITLE5=Long ago and far away
TTITLE6=Some other time
TTITLE7=Come out, come out, wherever you are
TTITLE8=Put your dreams away
TTITLE9=Let me love you tonight
TTITLE10=Aren't you glad you're you
TTITLE11=You brought a new kind of love to me
TTITLE12=I'll never smile again
TTITLE13=Without a song
TTITLE14=Oh! What it seemed to be 
TTITLE15=Over the rainbow
TTITLE16=My romance
TTITLE17=They say it's wonderful
TTITLE18=You are too beautiful
TTITLE19=Come rain or come shine
EXTD=
EXTT0=
EXTT1=
EXTT2=
EXTT3=
EXTT4=
EXTT5=
EXTT6=
EXTT7=
EXTT8=
EXTT9=
EXTT10=
EXTT11=
EXTT12=
EXTT13=
EXTT14=
EXTT15=
EXTT16=
EXTT17=
EXTT18=
EXTT19=
PLAYORDER=
